<svg width="31" height="31" viewBox="0 0 31 31" fill="none" xmlns="http://www.w3.org/2000/svg">
<path fill-rule="evenodd" clip-rule="evenodd" d="M12.9167 3.875C7.92309 3.875 3.875 7.92309 3.875 12.9167C3.875 17.9102 7.92309 21.9583 12.9167 21.9583C14.9476 21.9583 16.8221 21.2887 18.3316 20.1582L23.6284 25.4551C24.1328 25.9595 24.9507 25.9595 25.4551 25.4551C25.9595 24.9507 25.9595 24.1328 25.4551 23.6284L20.1582 18.3316C21.2887 16.8221 21.9583 14.9476 21.9583 12.9167C21.9583 7.92309 17.9102 3.875 12.9167 3.875ZM6.45833 12.9167C6.45833 9.34983 9.34983 6.45833 12.9167 6.45833C16.4835 6.45833 19.375 9.34983 19.375 12.9167C19.375 16.4835 16.4835 19.375 12.9167 19.375C9.34983 19.375 6.45833 16.4835 6.45833 12.9167Z" fill="#CC2D4A"/>
</svg>
