<svg width="31" height="31" viewBox="0 0 31 31" fill="none" xmlns="http://www.w3.org/2000/svg">
<path fill-rule="evenodd" clip-rule="evenodd" d="M5.78225 19.6464C7.4799 17.2799 10.4865 15.4999 15.4999 15.4999C20.5132 15.4999 23.5199 17.2799 25.2175 19.6464C26.8582 21.9336 27.1196 24.5552 27.1248 26.0058C27.13 27.4645 25.9071 28.4166 24.6533 28.4166H6.34642C5.09262 28.4166 3.86971 27.4645 3.87496 26.0058C3.88017 24.5552 4.1415 21.9336 5.78225 19.6464Z" fill="#F2F2F2"/>
<path fill-rule="evenodd" clip-rule="evenodd" d="M15.5 12.9166C18.3535 12.9166 20.6667 10.6034 20.6667 7.74992C20.6667 4.89645 18.3535 2.58325 15.5 2.58325C12.6465 2.58325 10.3333 4.89645 10.3333 7.74992C10.3333 10.6034 12.6465 12.9166 15.5 12.9166Z" fill="#F2F2F2"/>
</svg>
